<mxfile host="app.diagrams.net" modified="2024-01-14T14:49:04.128Z" agent="Mozilla/5.0 (Macintosh; Intel Mac OS X 10_15_7) AppleWebKit/537.36 (KHTML, like Gecko) Chrome/120.0.0.0 Safari/537.36" etag="XuL0W-P7fxWtyNWtQEUn" version="22.1.18" type="github">
  <diagram id="R2lEEEUBdFMjLlhIrx00" name="Page-1">
    <mxGraphModel dx="662" dy="442" grid="1" gridSize="10" guides="1" tooltips="1" connect="1" arrows="1" fold="1" page="1" pageScale="1" pageWidth="850" pageHeight="1100" math="0" shadow="0" extFonts="Permanent Marker^https://fonts.googleapis.com/css?family=Permanent+Marker">
      <root>
        <mxCell id="0" />
        <mxCell id="1" parent="0" />
        <mxCell id="_O2BBJR-yXXES8bW98D4-11" value="&lt;div style=&quot;box-sizing:border-box;width:100%;background:#e4e4e4;padding:2px;&quot;&gt;Relayer2 Node&lt;/div&gt;&lt;table style=&quot;width:100%;font-size:1em;&quot; cellpadding=&quot;2&quot; cellspacing=&quot;0&quot;&gt;&lt;tbody&gt;&lt;tr&gt;&lt;td&gt;PK&lt;/td&gt;&lt;td&gt;pk3&lt;/td&gt;&lt;/tr&gt;&lt;tr&gt;&lt;td&gt;Message&lt;/td&gt;&lt;td&gt;mid&lt;/td&gt;&lt;/tr&gt;&lt;tr&gt;&lt;td&gt;&lt;br&gt;signature chain&lt;br&gt;&lt;/td&gt;&lt;td&gt;content&lt;br&gt;sign3&lt;/td&gt;&lt;/tr&gt;&lt;/tbody&gt;&lt;/table&gt;" style="verticalAlign=top;align=left;overflow=fill;html=1;whiteSpace=wrap;" parent="1" vertex="1">
          <mxGeometry x="90" y="240" width="150" height="100" as="geometry" />
        </mxCell>
        <mxCell id="_O2BBJR-yXXES8bW98D4-16" value="" style="ellipse;whiteSpace=wrap;html=1;fillColor=none;" parent="1" vertex="1">
          <mxGeometry x="185" y="257" width="30" height="20" as="geometry" />
        </mxCell>
        <mxCell id="_O2BBJR-yXXES8bW98D4-13" value="" style="shape=orEllipse;perimeter=ellipsePerimeter;whiteSpace=wrap;html=1;backgroundOutline=1;" parent="1" vertex="1">
          <mxGeometry x="295" y="267" width="40" height="40" as="geometry" />
        </mxCell>
        <mxCell id="_O2BBJR-yXXES8bW98D4-14" value="Sign" style="text;html=1;align=center;verticalAlign=middle;resizable=0;points=[];autosize=1;strokeColor=none;fillColor=none;" parent="1" vertex="1">
          <mxGeometry x="340" y="274" width="50" height="30" as="geometry" />
        </mxCell>
        <mxCell id="_O2BBJR-yXXES8bW98D4-57" style="edgeStyle=orthogonalEdgeStyle;rounded=0;orthogonalLoop=1;jettySize=auto;html=1;entryX=0;entryY=0.5;entryDx=0;entryDy=0;curved=1;" parent="1" source="_O2BBJR-yXXES8bW98D4-19" target="_O2BBJR-yXXES8bW98D4-13" edge="1">
          <mxGeometry relative="1" as="geometry" />
        </mxCell>
        <mxCell id="_O2BBJR-yXXES8bW98D4-19" value="" style="ellipse;whiteSpace=wrap;html=1;fillColor=none;" parent="1" vertex="1">
          <mxGeometry x="181" y="309" width="50" height="20" as="geometry" />
        </mxCell>
        <mxCell id="_O2BBJR-yXXES8bW98D4-22" value="&lt;div style=&quot;box-sizing:border-box;width:100%;background:#e4e4e4;padding:2px;&quot;&gt;Inbound Node&lt;/div&gt;&lt;table style=&quot;width:100%;font-size:1em;&quot; cellpadding=&quot;2&quot; cellspacing=&quot;0&quot;&gt;&lt;tbody&gt;&lt;tr&gt;&lt;td&gt;PK&lt;/td&gt;&lt;td&gt;pk4&lt;/td&gt;&lt;/tr&gt;&lt;tr&gt;&lt;td&gt;Message&lt;/td&gt;&lt;td&gt;mid&lt;/td&gt;&lt;/tr&gt;&lt;tr&gt;&lt;td&gt;&lt;br&gt;signature chain&lt;br&gt;&lt;/td&gt;&lt;td&gt;content&lt;br&gt;sign4&lt;/td&gt;&lt;/tr&gt;&lt;/tbody&gt;&lt;/table&gt;" style="verticalAlign=top;align=left;overflow=fill;html=1;whiteSpace=wrap;" parent="1" vertex="1">
          <mxGeometry x="200" y="100" width="150" height="100" as="geometry" />
        </mxCell>
        <mxCell id="_O2BBJR-yXXES8bW98D4-60" style="edgeStyle=orthogonalEdgeStyle;rounded=0;orthogonalLoop=1;jettySize=auto;html=1;entryX=0;entryY=0.5;entryDx=0;entryDy=0;exitX=0;exitY=0.5;exitDx=0;exitDy=0;curved=1;" parent="1" source="_O2BBJR-yXXES8bW98D4-23" target="_O2BBJR-yXXES8bW98D4-13" edge="1">
          <mxGeometry relative="1" as="geometry" />
        </mxCell>
        <mxCell id="_O2BBJR-yXXES8bW98D4-23" value="" style="ellipse;whiteSpace=wrap;html=1;fillColor=none;" parent="1" vertex="1">
          <mxGeometry x="295" y="117" width="30" height="20" as="geometry" />
        </mxCell>
        <mxCell id="_O2BBJR-yXXES8bW98D4-24" value="" style="ellipse;whiteSpace=wrap;html=1;fillColor=none;" parent="1" vertex="1">
          <mxGeometry x="290" y="169" width="50" height="20" as="geometry" />
        </mxCell>
        <mxCell id="_O2BBJR-yXXES8bW98D4-25" value="&lt;div style=&quot;box-sizing:border-box;width:100%;background:#e4e4e4;padding:2px;&quot;&gt;Relayer1 Node&lt;/div&gt;&lt;table style=&quot;width:100%;font-size:1em;&quot; cellpadding=&quot;2&quot; cellspacing=&quot;0&quot;&gt;&lt;tbody&gt;&lt;tr&gt;&lt;td&gt;PK&lt;/td&gt;&lt;td&gt;pk2&lt;/td&gt;&lt;/tr&gt;&lt;tr&gt;&lt;td&gt;Message&lt;/td&gt;&lt;td&gt;mid&lt;/td&gt;&lt;/tr&gt;&lt;tr&gt;&lt;td&gt;&lt;br&gt;signature chain&lt;br&gt;&lt;/td&gt;&lt;td&gt;content&lt;br&gt;sign2&lt;/td&gt;&lt;/tr&gt;&lt;/tbody&gt;&lt;/table&gt;" style="verticalAlign=top;align=left;overflow=fill;html=1;whiteSpace=wrap;" parent="1" vertex="1">
          <mxGeometry x="50" y="380" width="150" height="100" as="geometry" />
        </mxCell>
        <mxCell id="_O2BBJR-yXXES8bW98D4-26" value="" style="ellipse;whiteSpace=wrap;html=1;fillColor=none;" parent="1" vertex="1">
          <mxGeometry x="145" y="397" width="30" height="20" as="geometry" />
        </mxCell>
        <mxCell id="_O2BBJR-yXXES8bW98D4-28" value="&lt;div style=&quot;box-sizing:border-box;width:100%;background:#e4e4e4;padding:2px;&quot;&gt;Outbound Node&lt;/div&gt;&lt;table style=&quot;width:100%;font-size:1em;&quot; cellpadding=&quot;2&quot; cellspacing=&quot;0&quot;&gt;&lt;tbody&gt;&lt;tr&gt;&lt;td&gt;PK&lt;/td&gt;&lt;td&gt;pk1&lt;/td&gt;&lt;/tr&gt;&lt;tr&gt;&lt;td&gt;Message&lt;/td&gt;&lt;td&gt;mid&lt;/td&gt;&lt;/tr&gt;&lt;tr&gt;&lt;td&gt;&lt;br&gt;signature chain&lt;br&gt;&lt;/td&gt;&lt;td&gt;content&lt;br&gt;sign1&lt;/td&gt;&lt;/tr&gt;&lt;/tbody&gt;&lt;/table&gt;" style="verticalAlign=top;align=left;overflow=fill;html=1;whiteSpace=wrap;" parent="1" vertex="1">
          <mxGeometry x="10" y="520" width="150" height="100" as="geometry" />
        </mxCell>
        <mxCell id="_O2BBJR-yXXES8bW98D4-51" style="edgeStyle=orthogonalEdgeStyle;rounded=0;orthogonalLoop=1;jettySize=auto;html=1;entryX=0;entryY=0.5;entryDx=0;entryDy=0;curved=1;" parent="1" source="_O2BBJR-yXXES8bW98D4-27" target="_O2BBJR-yXXES8bW98D4-32" edge="1">
          <mxGeometry relative="1" as="geometry" />
        </mxCell>
        <mxCell id="_O2BBJR-yXXES8bW98D4-27" value="" style="ellipse;whiteSpace=wrap;html=1;fillColor=none;" parent="1" vertex="1">
          <mxGeometry x="140" y="449" width="50" height="20" as="geometry" />
        </mxCell>
        <mxCell id="_O2BBJR-yXXES8bW98D4-29" value="" style="ellipse;whiteSpace=wrap;html=1;fillColor=none;" parent="1" vertex="1">
          <mxGeometry x="105" y="538" width="30" height="20" as="geometry" />
        </mxCell>
        <mxCell id="_O2BBJR-yXXES8bW98D4-44" style="edgeStyle=orthogonalEdgeStyle;rounded=0;orthogonalLoop=1;jettySize=auto;html=1;entryX=0;entryY=0.5;entryDx=0;entryDy=0;curved=1;" parent="1" source="_O2BBJR-yXXES8bW98D4-30" target="_O2BBJR-yXXES8bW98D4-34" edge="1">
          <mxGeometry relative="1" as="geometry" />
        </mxCell>
        <mxCell id="_O2BBJR-yXXES8bW98D4-30" value="" style="ellipse;whiteSpace=wrap;html=1;fillColor=none;" parent="1" vertex="1">
          <mxGeometry x="100" y="555" width="45" height="22" as="geometry" />
        </mxCell>
        <mxCell id="_O2BBJR-yXXES8bW98D4-55" style="edgeStyle=orthogonalEdgeStyle;rounded=0;orthogonalLoop=1;jettySize=auto;html=1;entryX=0.5;entryY=1;entryDx=0;entryDy=0;curved=1;dashed=1;" parent="1" source="_O2BBJR-yXXES8bW98D4-32" target="_O2BBJR-yXXES8bW98D4-19" edge="1">
          <mxGeometry relative="1" as="geometry" />
        </mxCell>
        <mxCell id="_O2BBJR-yXXES8bW98D4-32" value="" style="shape=orEllipse;perimeter=ellipsePerimeter;whiteSpace=wrap;html=1;backgroundOutline=1;" parent="1" vertex="1">
          <mxGeometry x="250" y="407" width="40" height="40" as="geometry" />
        </mxCell>
        <mxCell id="_O2BBJR-yXXES8bW98D4-33" value="Sign" style="text;html=1;align=center;verticalAlign=middle;resizable=0;points=[];autosize=1;strokeColor=none;fillColor=none;" parent="1" vertex="1">
          <mxGeometry x="290" y="414" width="50" height="30" as="geometry" />
        </mxCell>
        <mxCell id="_O2BBJR-yXXES8bW98D4-45" style="edgeStyle=orthogonalEdgeStyle;rounded=0;orthogonalLoop=1;jettySize=auto;html=1;entryX=0.5;entryY=1;entryDx=0;entryDy=0;curved=1;dashed=1;" parent="1" source="_O2BBJR-yXXES8bW98D4-34" target="_O2BBJR-yXXES8bW98D4-27" edge="1">
          <mxGeometry relative="1" as="geometry" />
        </mxCell>
        <mxCell id="_O2BBJR-yXXES8bW98D4-34" value="" style="shape=orEllipse;perimeter=ellipsePerimeter;whiteSpace=wrap;html=1;backgroundOutline=1;" parent="1" vertex="1">
          <mxGeometry x="200" y="549" width="40" height="40" as="geometry" />
        </mxCell>
        <mxCell id="_O2BBJR-yXXES8bW98D4-35" value="Sign" style="text;html=1;align=center;verticalAlign=middle;resizable=0;points=[];autosize=1;strokeColor=none;fillColor=none;" parent="1" vertex="1">
          <mxGeometry x="240" y="554" width="50" height="30" as="geometry" />
        </mxCell>
        <mxCell id="_O2BBJR-yXXES8bW98D4-43" style="edgeStyle=orthogonalEdgeStyle;rounded=0;orthogonalLoop=1;jettySize=auto;html=1;entryX=0;entryY=0.5;entryDx=0;entryDy=0;curved=1;" parent="1" source="_O2BBJR-yXXES8bW98D4-40" target="_O2BBJR-yXXES8bW98D4-34" edge="1">
          <mxGeometry relative="1" as="geometry" />
        </mxCell>
        <mxCell id="_O2BBJR-yXXES8bW98D4-40" value="" style="ellipse;whiteSpace=wrap;html=1;fillColor=none;" parent="1" vertex="1">
          <mxGeometry x="100" y="589" width="50" height="20" as="geometry" />
        </mxCell>
        <mxCell id="_O2BBJR-yXXES8bW98D4-56" style="edgeStyle=orthogonalEdgeStyle;rounded=0;orthogonalLoop=1;jettySize=auto;html=1;entryX=0;entryY=0.5;entryDx=0;entryDy=0;" parent="1" source="_O2BBJR-yXXES8bW98D4-41" target="_O2BBJR-yXXES8bW98D4-13" edge="1">
          <mxGeometry relative="1" as="geometry" />
        </mxCell>
        <mxCell id="_O2BBJR-yXXES8bW98D4-41" value="" style="ellipse;whiteSpace=wrap;html=1;fillColor=none;" parent="1" vertex="1">
          <mxGeometry x="181" y="277" width="40" height="20" as="geometry" />
        </mxCell>
        <mxCell id="_O2BBJR-yXXES8bW98D4-50" style="edgeStyle=orthogonalEdgeStyle;rounded=0;orthogonalLoop=1;jettySize=auto;html=1;entryX=0;entryY=0.5;entryDx=0;entryDy=0;" parent="1" source="_O2BBJR-yXXES8bW98D4-42" target="_O2BBJR-yXXES8bW98D4-32" edge="1">
          <mxGeometry relative="1" as="geometry" />
        </mxCell>
        <mxCell id="_O2BBJR-yXXES8bW98D4-42" value="" style="ellipse;whiteSpace=wrap;html=1;fillColor=none;" parent="1" vertex="1">
          <mxGeometry x="140" y="417" width="40" height="20" as="geometry" />
        </mxCell>
        <mxCell id="_O2BBJR-yXXES8bW98D4-49" style="edgeStyle=orthogonalEdgeStyle;rounded=0;orthogonalLoop=1;jettySize=auto;html=1;entryX=0;entryY=0.5;entryDx=0;entryDy=0;exitX=0;exitY=0.5;exitDx=0;exitDy=0;curved=1;" parent="1" source="_O2BBJR-yXXES8bW98D4-26" target="_O2BBJR-yXXES8bW98D4-34" edge="1">
          <mxGeometry relative="1" as="geometry" />
        </mxCell>
        <mxCell id="_O2BBJR-yXXES8bW98D4-54" style="edgeStyle=orthogonalEdgeStyle;rounded=0;orthogonalLoop=1;jettySize=auto;html=1;entryX=0;entryY=0.5;entryDx=0;entryDy=0;exitX=0;exitY=0.5;exitDx=0;exitDy=0;curved=1;" parent="1" source="_O2BBJR-yXXES8bW98D4-16" target="_O2BBJR-yXXES8bW98D4-32" edge="1">
          <mxGeometry relative="1" as="geometry" />
        </mxCell>
        <mxCell id="_O2BBJR-yXXES8bW98D4-61" style="edgeStyle=orthogonalEdgeStyle;rounded=0;orthogonalLoop=1;jettySize=auto;html=1;entryX=0.5;entryY=1;entryDx=0;entryDy=0;dashed=1;" parent="1" source="_O2BBJR-yXXES8bW98D4-13" target="_O2BBJR-yXXES8bW98D4-24" edge="1">
          <mxGeometry relative="1" as="geometry" />
        </mxCell>
      </root>
    </mxGraphModel>
  </diagram>
</mxfile>
